<?xml version="1.0" encoding="utf-8"?>
<!-- Uploaded to: SVG Repo, www.svgrepo.com, Generator: SVG Repo Mixer Tools -->
<svg width="800px" height="800px" viewBox="-24.69 0 315.403 315.403" xmlns="http://www.w3.org/2000/svg"><defs><style>.a{fill:#ffffff;}.b{fill:#6dbf6b;}.c{fill:#211715;}.d{fill:#f4b467;}.e{fill:#7a7473;}</style></defs><path class="a" d="M175.742,91.143a8.149,8.149,0,0,1,6.521-1.908,7.7,7.7,0,0,1,5.534,3.678,10.9,10.9,0,0,1,1.139,4.377,32.608,32.608,0,0,1-3.325,17.284,20.728,20.728,0,0,1-5.359,7.033,13.748,13.748,0,0,1-6.389,2.88l-1.093.167c-.525,1.964-1.114,3.617-1.4,4.5-1.693,4.6-10.469,19.484-21.915,26.923.637,4.085.763,7.69,6.52,9.769.405.146,9.585,4.285,10.5,4.688,0,0-3.015,34.039-45.385,34.039s-47.282-34.483-47.282-34.483c.749-.321,11.03-4.1,11.435-4.244,6.038-2.18,5.881-6.04,6.617-10.371a51.916,51.916,0,0,1-10.964-10.036,55.462,55.462,0,0,1-10.567-20.626c-1.3-.2-2.083-.321-2.083-.321a13.748,13.748,0,0,1-6.389-2.88,20.728,20.728,0,0,1-5.359-7.033A32.608,32.608,0,0,1,53.171,97.29a10.9,10.9,0,0,1,1.139-4.377,7.7,7.7,0,0,1,5.534-3.678,8.149,8.149,0,0,1,6.521,1.908s-7.8-52.5,52.352-52.5C177.68,38.642,175.742,91.143,175.742,91.143Z"/><path class="b" d="M46.43,312.716c-.019-4.332-.034-8.888-.038-13.589-4.322.931-8.151,1.46-14.683,2.494-22.117,3.5-32.08-18.307-29.025-33.647,3.189-16.021,14.18-48.792,21.185-66.815l1.19-3.063,2.33-4.567c7.565-14.825,22.779-15.137,39.077-21.775.4-.162,2.879-.992,5.4-1.837,9.148,6.963,29.374,14.45,48.176,14.5,18.184.045,43.725-8.168,48.067-15.323,14.1,4.682,28.936,11.009,37.584,16.043,5.554,3.233,14.423,9.483,18.222,14.666,5.851,7.985,7.246,23.852,8.135,34.519,1.237,14.845,3.2,40.222,3.643,50.148.136,4.078.692,15.746,1.31,28.27"/><path class="c" d="M90.843,139.348c-.069,3.746-.309,7.494-.709,11.219a58.609,58.609,0,0,1-1.372,8.717,5.281,5.281,0,0,1-1.493,2.7,8.3,8.3,0,0,1-2.844,1.606q-2.7,1-5.41,1.991c-1.949.72-3.93,1.388-5.847,2.187a2.481,2.481,0,0,0-1.676,2.953,2.415,2.415,0,0,0,2.952,1.676c3.687-1.538,7.509-2.795,11.257-4.179,3.013-1.112,5.72-2.807,7.042-5.855,1.264-2.915,1.505-6.378,1.916-9.5a120.72,120.72,0,0,0,.984-13.515c.056-3.09-4.744-3.09-4.8,0Z"/><path class="c" d="M145.57,140.541a106.285,106.285,0,0,0,.959,12.244c.384,2.842.6,6.059,1.606,8.766a11.055,11.055,0,0,0,6.809,6.458c1.171.461-.456-.226.277.1l1.088.481q1.515.673,3.028,1.354c1.975.885,3.945,1.782,5.924,2.657a2.478,2.478,0,0,0,3.284-.861,2.418,2.418,0,0,0-.861-3.284c-3.354-1.482-6.678-3.029-10.04-4.492-1.972-.857-3.827-1.579-4.762-3.435a5.752,5.752,0,0,1-.431-1.246c-.161-.6-.275-1.218-.377-1.833-.23-1.392-.448-2.787-.664-4.181a95.157,95.157,0,0,1-1.04-12.729c-.058-3.085-4.858-3.095-4.8,0Z"/><path class="c" d="M164.575,170.467c12.9,4.113,25.807,9.023,37.721,15.509a84.186,84.186,0,0,1,13.88,9.394,33.216,33.216,0,0,1,5.839,5.879,25.932,25.932,0,0,1,3.259,6.615c3.667,10.656,4.051,22.295,4.95,33.435.937,11.61,1.843,23.225,2.594,34.85.787,12.182,1.186,24.395,1.787,36.588.151,3.074,4.952,3.093,4.8,0-.558-11.324-.93-22.665-1.623-33.981-.708-11.571-1.613-23.131-2.535-34.686-.925-11.577-1.338-23.546-4.5-34.78-1.568-5.565-3.99-10.517-8.151-14.59a80.169,80.169,0,0,0-14.641-11.018,144.266,144.266,0,0,0-18.554-9.1c-7.714-3.265-15.565-6.2-23.545-8.746-2.95-.941-4.213,3.692-1.277,4.628Z"/><path class="c" d="M195.246,221.436q-.069,13.437-.179,26.873-.138,20.664-.226,41.329-.045,11.723-.053,23.447c0,3.088,4.8,3.093,4.8,0q.006-21.021.14-42.042.1-18.555.237-37.11.043-6.249.081-12.5c.016-3.089-4.784-3.093-4.8,0Z"/><path class="c" d="M72.805,173.508A77.283,77.283,0,0,0,89.972,181.5a101.073,101.073,0,0,0,21.886,4.851c13.387,1.431,27.136-.847,39.825-5.173,5.6-1.909,11.421-4.212,16.01-8.047a2.418,2.418,0,0,0,0-3.394,2.451,2.451,0,0,0-3.394,0c-.17.142-.34.284-.516.42.377-.291-.25.175-.262.184-.412.286-.824.569-1.247.837-1.025.648-2.087,1.236-3.168,1.786a63.286,63.286,0,0,1-7.336,3.109,107.554,107.554,0,0,1-18.164,4.72,84.866,84.866,0,0,1-39.772-3.078,74.922,74.922,0,0,1-18.606-8.354c-2.6-1.687-5.007,2.467-2.423,4.145Z"/><path class="c" d="M44.261,220.465c0,9.615.238,19.228.245,28.842,0,3.088,4.8,3.094,4.8,0-.007-9.614-.242-19.227-.245-28.842,0-3.088-4.8-3.093-4.8,0Z"/><path class="c" d="M43.928,301.131q.009,5.655.035,11.311a2.4,2.4,0,0,0,4.8,0q-.024-5.657-.035-11.311a2.4,2.4,0,1,0-4.8,0Z"/><path class="a" d="M119.256,261.124a37.455,37.455,0,0,1,11.489-2.942,26.16,26.16,0,0,0,11.262-3.689,49.968,49.968,0,0,1,10.028-3.342c5.705-1.264,9.081-2.741,15.973-4.856,1.45-.445,3.634-2.372,3.074-4.968-.392-1.816-1.618-3.074-4.729-2.957l-4.277.161,6.232-2.04c2.268-.742,5.551-2.341,6.725-4.549,1.683-3.166.746-6.4-2.588-7.193a4.532,4.532,0,0,0,1.44-6.611c-1.9-2.391-5.236-1.113-7.8-.405-4.2,1.381-27.416,9.244-20.812,7.195-4.816,1.08,14.2-9.8,16.79-11.291,1.933-1.114,3.509-2.265,3-4.792-.95-4.753-6.449-3.144-9.165-1.755-6.9,3.53-16.233,7.322-22.945,12.195-1.7,2.656,1.721-3.691,2.284-4.713,1.439-2.611,2.991-4.792,1.982-8.028-.712-2.285-2.653-3.143-5.014-2.992-3.211.205-5.338,4.039-6.9,6.055-2.85,3.689-5.181,7.355-8.46,11.168-3.313,3.853-5.5,9.192-8.487,13.272A8.937,8.937,0,0,1,107,235.522"/><path class="c" d="M108.7,237.219c3.025-2.732,4.767-6.876,6.823-10.325,2.211-3.708,5.129-6.878,7.667-10.359,1.306-1.789,2.584-3.6,3.926-5.36.875-1.148,1.655-2.38,2.619-3.457a4.17,4.17,0,0,1,3-1.781,2.039,2.039,0,0,1,2.345,1.892c.345,1.907-.826,3.592-1.711,5.178q-1.259,2.254-2.427,4.559c-1.4,2.747,2.741,5.179,4.145,2.422q1.172-2.3,2.426-4.558c1.134-2.03,2.287-4.066,2.421-6.443a7.043,7.043,0,0,0-8.668-7.718c-3.946.685-6.08,4.577-8.3,7.484-1.479,1.938-2.877,3.935-4.321,5.9-1.516,2.062-3.212,3.973-4.753,6.013a62.029,62.029,0,0,0-4.212,6.736c-1.262,2.21-2.47,4.7-4.38,6.424-2.3,2.075,1.106,5.461,3.394,3.394Z"/><path class="c" d="M166.723,220.048a23.624,23.624,0,0,1,3.511-.886c-.387.046.348-.008.377-.008a4.037,4.037,0,0,1,.737.027c-.571-.093.638.3.159.064.075.036.566.405.32.195.379.324.017-.084.264.308a3.952,3.952,0,0,1,.225.421c-.08-.173-.092-.18-.038-.022a3.1,3.1,0,0,1,.087.341q-.034-.379,0,.059c0,.032-.038.769.025.3a3.7,3.7,0,0,1-.21.8c-.056.157-.053.149.01-.027a4.724,4.724,0,0,1-.237.415c-.351.548.234-.2-.225.268q-.324.276-.072.1a4.318,4.318,0,0,1-.421.272,2.428,2.428,0,0,0,.574,4.386c.117.031.908.345.617.192a4.206,4.206,0,0,1,.406.236q-.264-.231.048.041a4.1,4.1,0,0,1,.3.315q-.194-.261-.054-.053c.071.115.315.748.178.3.036.118.163.943.131.447a4.7,4.7,0,0,1-.016.934c.057-.419-.083.274-.1.335a2.78,2.78,0,0,1-.233.671,5.064,5.064,0,0,1-2.219,2.214,14.1,14.1,0,0,1-3.2,1.483,2.455,2.455,0,0,0-1.676,2.952,2.424,2.424,0,0,0,2.952,1.676c3.727-1.247,7.46-3.333,8.846-7.224a6.845,6.845,0,0,0-4.709-9.146l.573,4.386c3.312-2.008,4.686-6.634,2.3-9.894-2.633-3.6-6.857-2.53-10.51-1.508-2.97.831-1.708,5.464,1.276,4.629Z"/><path class="c" d="M140.8,252.42a25.536,25.536,0,0,1-10.666,3.437,41.448,41.448,0,0,0-12.085,3.194,2.419,2.419,0,0,0-.861,3.284,2.458,2.458,0,0,0,3.284.861,40.326,40.326,0,0,1,11.39-2.758,28.222,28.222,0,0,0,11.361-3.873c2.605-1.645.2-5.8-2.423-4.145Z"/><path class="c" d="M165.447,215.419c-7.256,2.391-14.589,4.7-21.729,7.42a2.469,2.469,0,0,0-1.676,2.952,2.418,2.418,0,0,0,2.952,1.676c7.14-2.72,14.473-5.029,21.729-7.419A2.456,2.456,0,0,0,168.4,217.1a2.425,2.425,0,0,0-2.953-1.676Z"/><path class="c" d="M171.233,222.677c.873-.372-.154.057-.364.141-.377.15-.755.3-1.133.441q-1.365.524-2.736,1.032-3.711,1.383-7.432,2.737c-4.3,1.573-8.621,3.087-12.866,4.791a2.474,2.474,0,0,0-1.676,2.952,2.416,2.416,0,0,0,2.952,1.676c8.48-3.4,17.271-6.044,25.678-9.626a2.413,2.413,0,0,0,.861-3.283,2.464,2.464,0,0,0-3.284-.861Z"/><path class="c" d="M168.166,234.13c-3.807,1.049-7.548,2.37-11.3,3.586-2.073.672-4.146,1.343-6.228,1.987a24.4,24.4,0,0,1-3.627,1.012,2.416,2.416,0,0,0-1.677,2.952,2.463,2.463,0,0,0,2.953,1.676,24.4,24.4,0,0,0,3.627-1.011c2.082-.644,4.155-1.316,6.228-1.987,3.755-1.216,7.5-2.538,11.3-3.586,2.974-.82,1.711-5.452-1.276-4.629Z"/><path class="c" d="M131.939,223.151c3.886-3.41,8.568-5.869,13.168-8.164,2.44-1.218,4.908-2.376,7.368-3.551,1.017-.485,2.032-.973,3.041-1.472.534-.264,1.063-.538,1.6-.8.2-.1.393-.194.592-.285.445-.2-.213.067.313-.126a12.126,12.126,0,0,1,2.365-.654,4.883,4.883,0,0,1,1.779.158c-.459-.1.2.164,0,.007-.232-.181.3.3.287.279-.093-.122.2.463.236.627a1.208,1.208,0,0,1-.49,1.531,21.72,21.72,0,0,1-3.169,1.92q-2.272,1.314-4.531,2.65a100.443,100.443,0,0,0-10.772,6.929,2.414,2.414,0,0,0,0,3.394,2.461,2.461,0,0,0,3.394,0c-.529.413.426-.3.578-.409.314-.221.632-.437.95-.65.909-.609,1.831-1.2,2.758-1.776,1.907-1.193,3.836-2.351,5.772-3.5q2.463-1.457,4.943-2.884a12.949,12.949,0,0,0,4.438-3.4,6.485,6.485,0,0,0-.713-7.836c-1.664-1.758-4.062-2.066-6.346-1.735a20.282,20.282,0,0,0-6.074,2.247c-2.531,1.258-5.095,2.448-7.642,3.672-6.045,2.907-12.155,5.972-17.232,10.426-2.326,2.042,1.08,5.425,3.394,3.4Z"/><path class="c" d="M155.234,243.3c2.845-.612,5.634-1.464,8.477-2.088.63-.138,1.261-.27,1.9-.371,0,0,.429-.059.183-.03s.2-.017.255-.021a8.55,8.55,0,0,1,1.109-.017,2.411,2.411,0,0,1,1.37.424c-.219-.143.058.279-.044,0,.039.109.128.2.172.309.076.189,0-.157.055.219a2.07,2.07,0,0,1-1.142,2.157c-.05.032-.526.242-.268.14.31-.122-.445.121-.393.106-.447.13-.889.277-1.333.418q-1.5.477-2.99.974c-3.088,1.025-6.164,2.089-9.323,2.881A66.856,66.856,0,0,0,140.8,252.42a2.422,2.422,0,0,0-.861,3.284,2.454,2.454,0,0,0,3.284.861c3.953-1.862,8.181-2.69,12.37-3.813,3.734-1,7.367-2.339,11.048-3.513,1.933-.617,3.766-1.116,5.163-2.687a6.59,6.59,0,0,0,1.6-5.863c-.894-4.052-4.929-5.067-8.556-4.553-3.692.524-7.244,1.751-10.882,2.535-3.019.649-1.741,5.277,1.276,4.628Z"/><path class="d" d="M264.967,175.236c-2.555.551-12.892,3.118-14.633,3.5-.126-2.334-.551-6.523-.725-8.054-3.807,1.082-21.112,6.877-25.6,8.229,1.488.094,14.824,1.548,17.832,1.713-.617,1.126-1.725,3.368-2.625,5.221,2.072.168,22.19.933,26.816,1.057C265.923,185.932,265.082,176.462,264.967,175.236Z"/><path class="d" d="M243.2,127.148c-1.679,3.054-8.134,15.7-9.273,17.787-2.459-1.914-7.046-5.148-8.739-6.311-2.24,4.777-11.539,27.26-14.1,32.96,1.4-1.415,14.519-13.566,17.316-16.449.594,1.606,1.881,4.681,2.959,7.208,1.982-1.94,20.342-21.518,24.511-26.065C254.8,135.539,244.536,128.1,243.2,127.148Z"/><path class="c" d="M182.948,250.188a15.837,15.837,0,0,0-11,16.387l3.612-2.073c-6.826-3.288-14.6.524-17.252,7.362l4.012-1.059a21.418,21.418,0,0,0-12.244-5.755,2.415,2.415,0,0,0-2.4,2.4,2.455,2.455,0,0,0,2.4,2.4,16.084,16.084,0,0,1,8.849,4.349,2.435,2.435,0,0,0,4.012-1.059c1.509-3.895,6.433-6.308,10.2-4.493,1.494.72,3.768-.11,3.611-2.072-.412-5.146,2.374-10.217,7.475-11.759,2.95-.891,1.693-5.525-1.276-4.628Z"/><path class="c" d="M154.081,193.375a16.245,16.245,0,0,0,7.959,1.157,18.376,18.376,0,0,0,7.9-3.186l-3.526-1.435c1.788,6.284,9.173,9.891,15.281,8.271l-2.953-2.952c-1.1,4.578-.375,10.241,2.942,13.8,2.11,2.265,5.5-1.135,3.394-3.394-2.027-2.175-2.405-6.238-1.707-9.131a2.425,2.425,0,0,0-2.952-2.952,7.62,7.62,0,0,1-6.288-1.117,8.929,8.929,0,0,1-2.086-1.917c-.159-.2-.461-.7-.649-1.01a2.1,2.1,0,0,1-.353-.875,2.421,2.421,0,0,0-3.526-1.434,13.994,13.994,0,0,1-6.113,2.611,12.762,12.762,0,0,1-6.045-1.066,2.418,2.418,0,0,0-2.952,1.676,2.456,2.456,0,0,0,1.676,2.953Z"/><path class="c" d="M177.439,92.84a5.676,5.676,0,0,1,7.913.7c1.086,1.4,1.2,3.388,1.271,5.083a29.255,29.255,0,0,1-.351,6.215c-1.234,7.194-5.031,15.961-13.047,17.338a2.421,2.421,0,0,0-1.676,2.953A2.455,2.455,0,0,0,174.5,126.8c8.235-1.415,13.137-9.157,15.418-16.578a34.428,34.428,0,0,0,1.466-12.269c-.26-3.989-1.468-7.74-5.134-9.828a10.656,10.656,0,0,0-12.206,1.32,2.421,2.421,0,0,0,0,3.394,2.45,2.45,0,0,0,3.394,0Z"/><path class="c" d="M171.379,118.419a27.408,27.408,0,0,1-1.3,6.912c-.259.87-.544,1.732-.833,2.592-.079.233-.153.467-.238.7-.036.1-.08.191-.113.289-.173.5.138-.307.028-.066a58.087,58.087,0,0,1-3.607,6.6,64.97,64.97,0,0,1-14.512,16.739,27.624,27.624,0,0,1-10.751,5.439c-3.01.691-1.736,5.32,1.276,4.628,8.115-1.864,14.912-7.7,20.272-13.813a70.172,70.172,0,0,0,11.313-16.824,35.624,35.624,0,0,0,3.261-13.191c.1-3.089-4.7-3.086-4.8,0Z"/><path class="c" d="M68.062,89.446a10.615,10.615,0,0,0-10.929-1.919c-3.87,1.589-5.779,4.918-6.273,8.945a33.443,33.443,0,0,0,5.846,23.1,17.422,17.422,0,0,0,10.9,7.233,2.47,2.47,0,0,0,2.952-1.676,2.421,2.421,0,0,0-1.676-2.953c-8.016-1.376-11.813-10.145-13.047-17.338a29.116,29.116,0,0,1-.359-5.993c.064-1.712.146-3.713,1.182-5.16a5.646,5.646,0,0,1,8.01-.841,2.463,2.463,0,0,0,3.394,0,2.421,2.421,0,0,0,0-3.394Z"/><path class="c" d="M66.258,117.622c2.962,17.1,12.223,33.838,28.061,42.094a38.05,38.05,0,0,0,13.768,4.126,2.417,2.417,0,0,0,2.4-2.4,2.454,2.454,0,0,0-2.4-2.4c-16.359-1.695-29.11-16.356-34.255-31.094a72.977,72.977,0,0,1-2.946-11.6,2.42,2.42,0,0,0-2.952-1.676,2.454,2.454,0,0,0-1.676,2.952Z"/><path class="c" d="M114.883,92.084c0,1.525.15,3.049.153,4.574a2.477,2.477,0,0,0,.7,1.7,2.4,2.4,0,0,0,3.394,0,2.489,2.489,0,0,0,.7-1.7c0-1.525-.15-3.049-.153-4.574a2.477,2.477,0,0,0-.7-1.7,2.4,2.4,0,0,0-3.394,0,2.494,2.494,0,0,0-.7,1.7Z"/><path class="c" d="M123.669,92.084c0,1.525.149,3.049.153,4.574a2.473,2.473,0,0,0,.7,1.7,2.4,2.4,0,0,0,3.394,0,2.494,2.494,0,0,0,.7-1.7c0-1.525-.151-3.049-.153-4.574a2.477,2.477,0,0,0-.7-1.7,2.4,2.4,0,0,0-3.394,0,2.489,2.489,0,0,0-.7,1.7Z"/><path class="c" d="M65.212,90.944c.583.7.914,1.141,1.588,2.1.662.944,1.3,1.908,1.917,2.88,1.416,2.218,2.759,4.483,4.073,6.763,2.188,3.8,4.26,7.659,6.406,11.48,1.512,2.694,5.66.277,4.144-2.423-2.2-3.916-4.321-7.874-6.57-11.764A86.369,86.369,0,0,0,68.606,87.55a2.42,2.42,0,0,0-3.394,0,2.451,2.451,0,0,0,0,3.394Z"/><path class="c" d="M173.046,88.806q-6,9-11.906,18.077c-1.058,1.621-2.116,3.243-3.159,4.874-1.67,2.61,2.483,5.02,4.144,2.423,4.382-6.847,8.874-13.626,13.363-20.4.564-.852,1.136-1.7,1.7-2.549a2.4,2.4,0,0,0-4.145-2.422Z"/><path class="a" d="M119.709,109.516c-8.564,0-22.85,1.325-32.115,2.051-1.713.135-5.909.629-7.017,1.9-2.062,2.368-1.28,7.423-1.547,10.3a74.834,74.834,0,0,0,.4,13.779c.618,6.055.918,12.508,4.991,17.231,7.53,8.732,24.979,13.381,36.443,13.381a68.191,68.191,0,0,0,22.432-4.139c6.251-2.284,12.1-6.115,15.368-11.623,3.085-5.194,2.964-10.4,3.626-16.319a62.534,62.534,0,0,0,.238-12.533c-.283-2.865.435-7.545-1.653-9.942-1.108-1.273-4.568-1.865-6.279-2.015C143.735,110.635,129.224,109.516,119.709,109.516Z"/><path class="c" d="M119.709,107.116c-8.3.014-16.6.788-24.869,1.463a105,105,0,0,0-11.15,1.1,9.2,9.2,0,0,0-4.675,1.952c-1.5,1.434-1.968,3.613-2.189,5.588-.207,1.849-.087,3.706-.142,5.561-.067,2.266-.268,4.5-.211,6.778a131.321,131.321,0,0,0,1.149,13.562c.605,4.641,1.729,9.163,4.718,12.881a29.177,29.177,0,0,0,8.423,6.786,63.857,63.857,0,0,0,49.079,4.886c8.565-2.519,17.483-7.026,21.616-15.4,2.117-4.29,2.553-8.949,2.98-13.644a83.475,83.475,0,0,0,.529-14.68c-.314-3.7.464-8.1-1.825-11.322-2.243-3.156-6.93-3.306-10.43-3.606-9.045-.776-18.106-1.49-27.18-1.8-1.941-.065-3.882-.107-5.823-.109-3.089,0-3.094,4.8,0,4.8,8.184.01,16.371.592,24.528,1.216,3.638.278,7.9.411,11.194.955a18.01,18.01,0,0,1,2.365.533,3.6,3.6,0,0,1,1.383.677c.829,1.089.811,2.862.846,4.163.107,4,.434,8,.237,12.01-.113,2.325-.393,4.633-.6,6.95-.185,2.016-.323,4.043-.686,6.037a19.44,19.44,0,0,1-5.309,10.475,29.123,29.123,0,0,1-9.883,6.343,61.076,61.076,0,0,1-25.168,4.425A61.888,61.888,0,0,1,98.1,161.052c-6.14-2.546-12.617-6.408-14.66-13.127-1.151-3.783-1.374-7.8-1.743-11.716a93.776,93.776,0,0,1-.226-13.133c.077-1.722-.041-3.447.088-5.168a7.915,7.915,0,0,1,.363-1.977,3.459,3.459,0,0,1,.379-.791c.118-.188-.147.053.162-.114,2.2-1.191,5.758-1.106,8.506-1.33,7.942-.648,15.888-1.361,23.852-1.672,1.628-.064,3.256-.106,4.885-.108C122.8,111.91,122.8,107.11,119.709,107.116Z"/><path class="c" d="M138.8,102.932c3.525-.243,7.023-.8,10.543-1.094a2.4,2.4,0,0,0,0-4.8c-3.52.3-7.018.851-10.543,1.094a2.4,2.4,0,1,0,0,4.8Z"/><path class="c" d="M103.737,98.132c-3.524-.243-7.022-.8-10.543-1.094a2.412,2.412,0,0,0-2.4,2.4,2.462,2.462,0,0,0,2.4,2.4c3.521.3,7.019.851,10.543,1.094a2.412,2.412,0,0,0,2.4-2.4,2.457,2.457,0,0,0-2.4-2.4Z"/><path class="e" d="M166.13,75.216a83,83,0,0,1,9.335,15.972,8.093,8.093,0,0,1,6.8-2.173,7.285,7.285,0,0,1,1.419.358c4.054-10.41,4.648-25.492-.469-39.8-3.6-10.06-12.569-20.6-18.94-23.537l-9.2-6.614c-7.837-10.735-19.684-16.393-36.4-16.9C103.015,2.038,84.976,5.2,71.262,19l4.414,4.455C67.6,28.645,61.268,38.366,58.332,46.989c-3.52,10.338-4.571,25.048-.392,42.428l.03.125a7.754,7.754,0,0,1,1.874-.527,8.057,8.057,0,0,1,6.976,2.358C82.593,76.3,96.33,67.347,110.189,56.46c.08.922,3.033,8.305,3.724,8.586.941.382,11.259-6.1,18.454-10.533l11.326,2.98a42.283,42.283,0,0,1,13.278,7.776A62.93,62.93,0,0,1,166.13,75.216Z"/><path class="c" d="M163.062,28.107a26.98,26.98,0,0,1,8,6.392,51.753,51.753,0,0,1,7.494,10.539c4.471,8.3,6.187,18.237,5.9,27.6a50.47,50.47,0,0,1-2.371,14.09c-.955,2.945,3.678,4.207,4.629,1.276,3.034-9.356,3.2-19.553,1.455-29.175A55.056,55.056,0,0,0,175.6,32.39c-2.821-3.271-6.166-6.56-10.116-8.428a2.469,2.469,0,0,0-3.284.861,2.421,2.421,0,0,0,.861,3.284Z"/><path class="c" d="M80.037,18.6C70.279,22.262,63.03,31.035,58.572,40.191c-4.381,9-5.933,19.067-5.732,29.015a98.88,98.88,0,0,0,2.786,20.849c.715,3,5.344,1.732,4.628-1.276-4.5-18.888-4.2-40.569,8.84-56.162,3.3-3.941,7.344-7.557,12.219-9.385a2.466,2.466,0,0,0,1.676-2.952A2.419,2.419,0,0,0,80.037,18.6Z"/><path class="c" d="M157.147,18.21A41.754,41.754,0,0,0,144.481,6.661,48.4,48.4,0,0,0,127.268.887c-12.571-1.851-26.22-.9-38.117,3.731A56.648,56.648,0,0,0,69.565,17.305c-2.189,2.186,1.2,5.581,3.394,3.394,8.875-8.861,20.626-13.835,33-15.278,11.213-1.308,23.649-.9,33.932,4.219A36.377,36.377,0,0,1,153,20.632a2.47,2.47,0,0,0,3.283.861,2.416,2.416,0,0,0,.861-3.283Z"/><path class="c" d="M132.558,51.578c-5.686,3.489-11.285,7.213-17.19,10.327-.435.23-.877.445-1.32.66-.095.044-.191.087-.287.128q.534-.221.2-.091c.008.013-.371.1-.389.121.375-.4,2.342.831,1.886.493.208.154.3.492.1.084-.234-.468-.5-.921-.723-1.4-.579-1.22-.9-2-1.39-3.273-.218-.563-.431-1.127-.624-1.7-.1-.293-.374-1.569-.229-.473a2.44,2.44,0,0,0-4.1-1.7C94.41,65.811,79.729,75.974,66.636,88.242c-2.259,2.117,1.141,5.506,3.394,3.394,13.092-12.267,27.775-22.431,41.856-33.479l-4.1-1.7a23.85,23.85,0,0,0,2.066,5.994c.688,1.619,1.523,4.4,3.461,4.917,1.74.464,3.758-.923,5.207-1.715,2.485-1.36,4.908-2.836,7.326-4.311,3.052-1.861,6.085-3.753,9.132-5.622,2.628-1.613.22-5.767-2.423-4.145Z"/><path class="c" d="M143.055,59.807a45.879,45.879,0,0,1,17.989,12.918,78.027,78.027,0,0,1,11.966,18.8,2.42,2.42,0,0,0,3.284.861,2.457,2.457,0,0,0,.861-3.284,81.908,81.908,0,0,0-13-20.091,54.786,54.786,0,0,0-9.22-8.364,48.873,48.873,0,0,0-10.607-5.47,2.418,2.418,0,0,0-2.953,1.676,2.456,2.456,0,0,0,1.677,2.952Z"/><path class="b" d="M93.957,279.845c15.428-7.593,29.359-15.049,30.182-16.316-.889-2.37-14.074-30.184-16.935-35.047-4.646,1.746-13.617,5.025-23.8,8.7"/><path class="c" d="M72.922,167.036c-6.672,2.237-13.239,4.725-19.96,6.817-6.3,1.961-12.871,3.934-18.322,7.78a29.867,29.867,0,0,0-7.093,7.011,44.262,44.262,0,0,0-4.361,8.458c-2.742,6.328-5.3,12.738-7.719,19.195A368.642,368.642,0,0,0,2.68,255.954c-1.254,5-2.505,10.176-2.662,15.351a38.646,38.646,0,0,0,2.887,15.881,29.019,29.019,0,0,0,10.339,13.172,25.594,25.594,0,0,0,17.405,3.813c11.287-1.382,22.559-3.565,33.121-7.853,9.731-3.95,19.24-8.465,28.677-13.067,8.823-4.3,17.62-8.7,26.207-13.457a43.214,43.214,0,0,0,6.71-4.126c1.3-1.076,1.256-2.426.633-3.871-.554-1.287-1.146-2.558-1.734-3.829-4.179-9.031-8.446-18.039-12.967-26.905-.651-1.275-1.3-2.557-2.02-3.793a2.427,2.427,0,0,0-2.71-1.1c-18.159,6.821-36.45,13.316-54.763,19.71-4.535,1.584-9.075,3.158-13.635,4.671-2.918.969-1.667,5.606,1.276,4.629,19.158-6.358,38.137-13.3,57.1-20.216,3.771-1.375,7.542-2.754,11.3-4.165l-2.711-1.1c2.493,4.261,4.546,8.817,6.7,13.254q4.086,8.42,8.038,16.9c.48,1.034.958,2.069,1.426,3.109.158.351.313.7.47,1.056.288.645-.21-.559.061.152l.242-1.849c.486-.7.3-.376,0-.117.686-.587.012-.02-.315.2-.784.526-1.6,1.009-2.414,1.487-2.54,1.489-5.133,2.888-7.731,4.271-7.5,3.994-15.1,7.805-22.747,11.517-7.806,3.791-15.663,7.492-23.649,10.89l-.275.116-.625.262q-.609.255-1.22.5-1.149.471-2.306.926c-1.326.521-2.66,1.026-4.009,1.488A98.665,98.665,0,0,1,43.3,297.31c-2.745.524-5.508.947-8.269,1.377a47.387,47.387,0,0,1-8.739.9,19.813,19.813,0,0,1-11.762-4.2c-6.606-5.4-9.611-14.233-9.725-22.5-.013-.96.011-1.921.077-2.879a25.072,25.072,0,0,1,.3-2.688c.306-1.977.7-3.941,1.132-5.894,1.081-4.877,2.412-9.7,3.835-14.486,3.344-11.25,7.223-22.349,11.442-33.3,1.919-4.981,3.913-9.935,6.049-14.828,2.094-4.794,4.419-9.177,8.637-12.457,3.992-3.105,8.828-4.918,13.582-6.483,5.64-1.856,11.35-3.463,16.876-5.654,2.44-.967,4.975-1.718,7.462-2.552,2.914-.977,1.664-5.614-1.276-4.629Z"/></svg>